<svg xmlns="http://www.w3.org/2000/svg" xmlns:xlink="http://www.w3.org/1999/xlink" viewBox="0 0 18.624 20.951">
  <defs>
    <style>
      .cls-1 {
        fill: #80e0a7;
      }

      .cls-2 {
        clip-path: url(#clip-path);
      }
    </style>
    <clipPath id="clip-path">
      <path id="Mask" class="cls-1" d="M17.46,20.951H3.492A3.5,3.5,0,0,1,0,17.46V3.492A3.5,3.5,0,0,1,3.492,0H17.46a1.165,1.165,0,0,1,1.164,1.164V19.787A1.165,1.165,0,0,1,17.46,20.951ZM3.492,16.3a1.164,1.164,0,1,0,0,2.328H16.3V16.3Z" transform="translate(0 0)"/>
    </clipPath>
  </defs>
  <g id="diagrams" transform="translate(-357 -5625.549)">
    <path id="Mask-2" data-name="Mask" class="cls-1" d="M17.46,20.951H3.492A3.5,3.5,0,0,1,0,17.46V3.492A3.5,3.5,0,0,1,3.492,0H17.46a1.165,1.165,0,0,1,1.164,1.164V19.787A1.165,1.165,0,0,1,17.46,20.951ZM3.492,16.3a1.164,1.164,0,1,0,0,2.328H16.3V16.3Z" transform="translate(357 5625.549)"/>
    <g id="Group_123" data-name="Group 123" class="cls-2" transform="translate(357 5625.549)">
      <g id="_Color" data-name="🎨 Color" transform="translate(-4.656 -3.492)">
        <rect id="_Color_background" data-name="🎨 Color background" class="cls-1" width="27.935" height="27.935"/>
        <rect id="Base" class="cls-1" width="27.935" height="27.935"/>
      </g>
    </g>
  </g>
</svg>
