<svg id="Layer_1" data-name="Layer 1" xmlns="http://www.w3.org/2000/svg" xmlns:xlink="http://www.w3.org/1999/xlink" viewBox="0 0 882.2 693.1"><defs><linearGradient id="linear-gradient" x1="514.95" y1="113.66" x2="704.9" y2="635.54" gradientTransform="matrix(1, 0, 0, -1, 0, 842)" gradientUnits="userSpaceOnUse"><stop offset="0" stop-color="#00aace"/><stop offset="0.02" stop-color="#00abcf"/><stop offset="0.63" stop-color="#07c4e1"/><stop offset="1" stop-color="#0acee8"/></linearGradient><clipPath id="clip-path" transform="translate(-154.8 -74.4)"><path d="M839.7,433.8c-11.2-16.1-1.8-22.2-1.8-22.2h18.3s9.4,6-1.8,22.2Z" style="fill:none"/></clipPath><clipPath id="clip-path-2" transform="translate(-154.8 -74.4)"><path d="M826.5,444.3c-8.2-11.7-1.3-16.1-1.3-16.1h13.3s6.8,4.4-1.3,16.1Z" style="fill:none"/></clipPath><clipPath id="clip-path-3" transform="translate(-154.8 -74.4)"><path d="M381.4,681.4c-11.2-16.1-1.8-22.2-1.8-22.2H398s9.4,6-1.8,22.2Z" style="fill:none"/></clipPath><clipPath id="clip-path-4" transform="translate(-154.8 -74.4)"><path d="M612.1,153.8c-11.2-16.1-1.8-22.2-1.8-22.2h18.3s9.4,6-1.8,22.2Z" style="fill:none"/></clipPath><clipPath id="clip-path-5" transform="translate(-154.8 -74.4)"><path d="M598.5,160.8c-8.2-11.7-1.3-16.1-1.3-16.1h13.3s6.8,4.4-1.3,16.1Z" style="fill:none"/></clipPath><clipPath id="clip-path-6" transform="translate(-154.8 -74.4)"><path d="M631,160.8c-8.2-11.7-1.3-16.1-1.3-16.1H643s6.8,4.4-1.3,16.1Z" style="fill:none"/></clipPath><clipPath id="clip-path-7" transform="translate(-154.8 -74.4)"><path d="M367.1,361c-8.2-11.7-1.3-16.1-1.3-16.1h13.3s6.8,4.4-1.3,16.1Z" style="fill:none"/></clipPath><clipPath id="clip-path-8" transform="translate(-154.8 -74.4)"><path d="M693.7,673.9c-8.2-11.7-1.3-16.1-1.3-16.1h13.3s6.8,4.4-1.3,16.1Z" style="fill:none"/></clipPath></defs><title>mindfulDesignFinal</title><g id="rightTree"><g id="rightTree-2" data-name="rightTree"><polygon points="863 242.3 796.2 280.9 729.4 242.3 796.2 203.8 863 242.3" style="fill:#ff9750"/><polygon points="796.2 296.8 729.4 258.2 729.4 242.3 796.2 280.9 796.2 296.8" style="fill:#ffc7ae"/><polygon points="863 258.2 796.2 296.8 796.2 280.9 863 242.3 863 258.2" style="fill:#e26a1a"/><path d="M916.1,312.8c3,8.5,17.9,5.6,23,13,1.6,2.4-.5,9.7,1.4,11.8,4.1,4.6,11.3,4.1,17.3,2.7,9.5-2.2,19.3-6,24.9-14,9-12.9-13.4-33.4-30.8-33.6-6.4-.1-12.4,1.7-18.4,3.9C930.5,297.7,911.1,298.7,916.1,312.8Z" transform="translate(-154.8 -74.4)" style="fill:#e26a1a;opacity:0.4000000059604645;isolation:isolate"/><path d="M919.5,329c9.2,4.6,18.4,2.8,14.6-2.3C929.2,319.9,907.4,322.9,919.5,329Z" transform="translate(-154.8 -74.4)" style="fill:#e26a1a;opacity:0.4000000059604645;isolation:isolate"/><rect x="788.3" y="213.1" width="15.8" height="29.6" style="fill:#ffc7ae"/><ellipse cx="796.2" cy="242.6" rx="7.9" ry="4.6" style="fill:#ffc7ae"/><path d="M955.6,181.5c3.7,18.2,22.2,13.7,28.5,25.5,4.8,9.2-5.5,29.6,6.3,41.4a23.34,23.34,0,0,1,7.1,14.1,34.62,34.62,0,0,1-17.2,33.2,58.26,58.26,0,0,1-58.5,0,34.64,34.64,0,0,1-14.3-44.2c3.5-7.8,12.5-12.1,16.7-19.5,5.3-9.5-.9-26.4,3.4-39.8C932.7,176,952.3,165.2,955.6,181.5Z" transform="translate(-154.8 -74.4)" style="fill:#17bc7d"/><path d="M992.8,314.5a6.78,6.78,0,0,1,.6,5.2,15.63,15.63,0,0,1,3.9-4.2" transform="translate(-154.8 -74.4)" style="fill:none;stroke:#ed683a;stroke-linecap:round;stroke-linejoin:round;stroke-width:3px"/><path d="M990,316.1a19.35,19.35,0,0,1,3.4,3.6" transform="translate(-154.8 -74.4)" style="fill:none;stroke:#ed683a;stroke-linecap:round;stroke-linejoin:round;stroke-width:3px"/><path d="M916.1,305.7a6.78,6.78,0,0,0-.6,5.2,15.63,15.63,0,0,0-3.9-4.2" transform="translate(-154.8 -74.4)" style="fill:none;stroke:#ed683a;stroke-linecap:round;stroke-linejoin:round;stroke-width:3px"/><path d="M918.9,307.3a19.35,19.35,0,0,0-3.4,3.6" transform="translate(-154.8 -74.4)" style="fill:none;stroke:#ed683a;stroke-linecap:round;stroke-linejoin:round;stroke-width:3px"/><path d="M953,338.8c.8,1.1,1.5,2.2,2.3,3.3a8.75,8.75,0,0,1,2.2-3.2" transform="translate(-154.8 -74.4)" style="fill:none;stroke:#ed683a;stroke-linecap:round;stroke-linejoin:round;stroke-width:3px"/><path d="M975,252.5c12.9-3.6-6.2-23.2-10-14.9-2.5,5.5.4,13.8,7.7,15.1" transform="translate(-154.8 -74.4)" style="fill:none;stroke:#ad644b;stroke-linecap:round;stroke-linejoin:round;stroke-width:2px"/><path d="M982.3,250.1a5.37,5.37,0,0,0-9.4,5.2,5.27,5.27,0,0,0,6.3,2.5l2.6,4.8-1.5.9a1.13,1.13,0,0,0-.4,1.5h0a1.13,1.13,0,0,0,1.5.4l1.5-.9.6,1.1-1.5.9a1.1,1.1,0,0,0,1.1,1.9l1.5-.9.6,1.1a1.1,1.1,0,1,0,1.9-1.1l-6-10.9A5.06,5.06,0,0,0,982.3,250.1Zm-3.2,5.3a3.09,3.09,0,1,1,1.2-4.2A3,3,0,0,1,979.1,255.4Z" transform="translate(-154.8 -74.4)" style="fill:#ffee1a"/><path d="M977.6,251.3c2.3-1.7,2.2-4.4,1-7.1" transform="translate(-154.8 -74.4)" style="fill:none;stroke:#ad644b;stroke-linecap:round;stroke-linejoin:round;stroke-width:2px"/></g><path d="M969.6,239.8c.8-.1,3.6-3.9,3.3-8.4-.4-6.1-15.7-.2-9.6,2.5C965.1,234.7,968.3,240,969.6,239.8Z" transform="translate(-154.8 -74.4)" style="fill:#17bc7d"/></g><polygon points="265.7 175 288 187.8 466.1 84.9 443.1 72.6 265.7 175" style="fill:#ff9750"/><polyline points="400.3 255.3 422.5 242.5 493.7 282.9 451 290.4 400.3 255.3" style="fill:#ff9750"/><polygon points="285.1 149.7 285.1 186.3 271.4 189.9 236.3 177.9 285.1 149.7" style="fill:#e26a1a"/><polygon points="261.9 354.7 154 448.1 153.9 401.7 261.9 338.8 261.9 354.7" style="fill:#e26a1a"/><polygon points="634.9 181.8 465.3 85.4 465.3 101.3 634.9 261.5 634.9 181.8" style="fill:#ffc7ae"/><polygon points="657.1 168.9 465.2 59.7 442.9 72.7 634.7 181.9 657.1 168.9" style="fill:#ff9750"/><polygon points="657.1 184.8 634.9 197.6 634.9 181.9 657.1 168.9 657.1 184.8" style="fill:#ffc7ae"/><polygon points="466.9 293.8 400.3 255.3 400.3 304.7 466.9 293.8" style="fill:#ffc7ae"/><path d="M295.3,323.7Z" transform="translate(-154.8 -74.4)" style="fill:#37acf4"/><path d="M784.6,332l-.5-48.5A25.09,25.09,0,0,0,771.5,262L619,175.2,453.9,268.6,434,257.2a25.08,25.08,0,0,0-25,.1L295.3,323.8,511.8,447.3l-.2-32.3a17.94,17.94,0,0,1,26.8-15.7l114.9,65.4L545.1,527.9,394.6,442l-68.7,40.1a25.14,25.14,0,0,0-12.4,21.7v25.9l-95.1,55.5L389,682.5l156.4-91.3,151.3,86.3,143.8-84.4-.3-48.5a25.14,25.14,0,0,1,12.4-21.7l132-76.9Zm-397,287.2-59.4-34.5,41.6-24.3-.1-24.6a25.14,25.14,0,0,1,12.4-21.7L396,506l94.4,53.8ZM797.9,491.6a25.14,25.14,0,0,0-12.4,21.7l.3,48.6-89.4,52.3-96.2-54.9,162.9-95.1L596.7,369.4a25.08,25.08,0,0,0-25,.1l-42.3,24.7-124.3-71,62.5-36.5a18,18,0,0,1,27.1,15.4l.1,17.8,11.5,3.9,133-73.9,77.5,44.2a25.09,25.09,0,0,1,12.6,21.5l.5,48.5,143.8,83.4Z" transform="translate(-154.8 -74.4)" style="fill:url(#linear-gradient)"/><polygon points="484.5 160.5 462.3 147.7 330.8 223.6 353 236.4 484.5 160.5" style="fill:#ff9750"/><polygon points="353 236.4 353 252.3 484.5 176.4 484.5 160.5 353 236.4" style="fill:#e26a1a"/><polygon points="288 187.8 301.9 195.7 465.3 101.3 465.3 85.4 288 187.8" style="fill:#e26a1a"/><polygon points="332.4 207.7 332.4 248.4 346.1 256.3 346.1 215.6 332.4 207.7" style="fill:#ff9750"/><polygon points="359.9 191.9 359.9 248.4 346.1 256.3 346.1 199.8 359.9 191.9" style="fill:#e26a1a"/><polygon points="374.1 320 250.3 248.4 250.3 232.4 387.8 312 374.1 320" style="fill:#ffc7ae"/><polygon points="359.9 209.7 292.1 248.8 292.1 231 359.9 191.9 359.9 209.7" style="fill:#e26a1a"/><polygon points="292.1 231.1 400.3 293.6 400.3 304.7 387.8 312 250.3 232.4 340 180.6 359.8 191.9 292.1 231.1" style="fill:#ff9750"/><polygon points="285.1 165.6 140.5 249.3 140.5 233.4 285.1 149.7 285.1 165.6" style="fill:#e26a1a"/><polygon points="118.2 220.5 140.5 233.2 285.2 149.7 263 136.9 118.2 220.5" style="fill:#ff9750"/><polygon points="363 355.8 123 217.2 100.8 230.1 340.7 368.6 363 355.8" style="fill:#ff9750"/><polygon points="122.7 393.8 144.9 406.7 261.9 338.8 239.7 326 122.7 393.8" style="fill:#ff9750"/><polygon points="28.5 489.3 50.9 502.1 158.7 439.5 136.5 426.7 28.5 489.3" style="fill:#ff9750"/><polygon points="122.7 393.8 122.7 434.7 144.9 447.6 144.9 406.7 122.7 393.8" style="fill:#ffc7ae"/><polygon points="657.2 376.4 436.3 250.3 414.2 263.2 635 389.4 657.2 376.4" style="fill:#ff9750"/><polygon points="635 389.3 414.2 263.2 414.2 279.1 635 405.1 635 389.3" style="fill:#ffc7ae"/><polygon points="657.2 392.3 635 405.1 635 389.4 657.2 376.4 657.2 392.3" style="fill:#ffc7ae"/><polygon points="158.7 398.8 158.7 455.4 144.9 463.3 144.9 406.7 158.7 398.8" style="fill:#e26a1a"/><polygon points="158.7 455.4 50.7 518.2 50.6 502.4 158.7 439.5 158.7 455.4" style="fill:#e26a1a"/><polygon points="234.2 592.6 41.8 481.6 19.6 494.5 212 605.4 234.2 592.6" style="fill:#ff9750"/><polygon points="212 605.4 19.6 494.5 19.6 510.4 212 621.3 212 605.4" style="fill:#ffc7ae"/><polygon points="234.2 608.4 212 621.3 212 605.4 234.2 592.6 234.2 608.4" style="fill:#ffc7ae"/><polygon points="391.6 542.8 234.2 634.1 234 618.2 391.6 527 391.6 542.8" style="fill:#e26a1a"/><polygon points="212 605.4 234 618.4 393.1 526.2 369.4 514.1 212 605.4" style="fill:#ff9750"/><polygon points="211.9 621.3 234.2 634.1 234.2 618.3 211.9 605.4 211.9 621.3" style="fill:#ffc7ae"/><polygon points="633.3 402.6 475.9 493.8 475.8 477.9 633.3 386.7 633.3 402.6" style="fill:#e26a1a"/><polygon points="453.7 465.1 475.8 478.1 634.8 385.9 611.1 373.8 453.7 465.1" style="fill:#ff9750"/><polygon points="453.7 481 475.9 493.8 475.9 478 453.7 465.1 453.7 481" style="fill:#ffc7ae"/><polygon points="880.9 359.5 652 228.8 629.8 241.7 858.7 372.4 880.9 359.5" style="fill:#ff9750"/><polygon points="858.7 372.3 629.8 241.7 629.8 257.6 858.7 388.2 858.7 372.3" style="fill:#ffc7ae"/><polygon points="880.9 375.3 858.7 388.2 858.7 372.4 880.9 359.5 880.9 375.3" style="fill:#e26a1a"/><polygon points="674.6 179 652 166.1 629.8 178.9 652.3 191.9 674.6 179" style="fill:#ff9750"/><polygon points="652.3 191.8 629.8 179 629.8 241.7 652.3 254.6 652.3 191.8" style="fill:#ffc7ae"/><polygon points="674.6 241.7 652.3 254.5 652.3 191.9 674.6 179 674.6 241.7" style="fill:#ff9750"/><polygon points="595.7 224.6 469.7 151.8 447.5 164.7 573.5 237.4 595.7 224.6" style="fill:#ff9750"/><polygon points="573.5 237.4 462.4 173.3 462.1 189.1 573.5 253.3 573.5 237.4" style="fill:#ffc7ae"/><polygon points="595.7 240.5 573.5 253.3 573.5 237.5 595.7 224.6 595.7 240.5" style="fill:#ffc7ae"/><polygon points="210.6 531.9 232.8 544.8 232.8 529 210.6 516.1 210.6 531.9" style="fill:#ff9750"/><polygon points="403.7 429.7 477.7 386.6 454.1 374.6 381.7 416.7 403.7 429.7" style="fill:#ff9750"/><polygon points="298.4 465.1 210.6 516.1 232.7 529.1 319.3 478.7 298.4 465.1" style="fill:#ff9750"/><polygon points="321.4 477.3 232.7 528.9 232.8 544.8 321.4 493.3 321.4 477.3" style="fill:#e26a1a"/><polygon points="403.7 429.6 403.7 445.5 476.3 403.3 476.3 387.4 403.7 429.6" style="fill:#ffc7ae"/><polygon points="563.6 511.1 261.9 338.8 239.7 351.7 541.3 523.9 563.6 511.1" style="fill:#ff9750"/><polygon points="541.3 523.9 239.7 351.7 239.7 367.6 541.3 539.8 541.3 523.9" style="fill:#ffc7ae"/><polygon points="563.6 526.9 541.3 539.8 541.3 523.9 563.6 511.1 563.6 526.9" style="fill:#ffc7ae"/><polygon points="541.9 587.3 242.5 415.9 220.4 428.8 519.7 600.1 541.9 587.3" style="fill:#ff9750"/><polygon points="519.7 600.1 220.4 428.8 220.4 444.6 519.7 616 519.7 600.1" style="fill:#ffc7ae"/><polygon points="541.9 603.1 519.7 615.9 519.7 600.1 541.9 587.3 541.9 603.1" style="fill:#ffc7ae"/><polygon points="240.9 456.4 222.7 467 222.7 451.2 240.9 440.5 240.9 456.4" style="fill:#e26a1a"/><polygon points="608.2 411.5 608.2 475.3 630.4 488 630.4 424.4 644.2 416.5 621.9 404.6 608.2 411.5" style="fill:#ffc7ae"/><polygon points="644.2 416.5 644.2 480 630.4 488 630.4 424.4 644.2 416.5" style="fill:#e26a1a"/><polygon points="630.4 488 541.5 539.7 541.3 523.9 630.4 472.2 630.4 488" style="fill:#e26a1a"/><polygon points="519.3 511.1 541.3 524 630.5 472.2 608.3 459.3 519.3 511.1" style="fill:#ff9750"/><polygon points="519.3 526.9 541.5 539.8 541.5 523.9 519.3 511.1 519.3 526.9" style="fill:#ffc7ae"/><circle cx="154.3" cy="460.2" r="12.6" style="fill:#fff"/><circle cx="178.4" cy="468" r="14.1" style="fill:#fff"/><circle cx="139.1" cy="458.7" r="9.8" style="fill:#fff"/><circle cx="145.8" cy="472.8" r="14.1" style="fill:#fff"/><circle cx="191.3" cy="478.9" r="10.9" style="fill:#fff"/><circle cx="161.8" cy="472.8" r="10.9" style="fill:#fff"/><circle cx="169.4" cy="453.9" r="7.6" style="fill:#fff"/><circle cx="176.2" cy="492.3" r="9.9" style="fill:#fff"/><circle cx="178.4" cy="428.8" r="3.8" style="fill:#fff"/><circle cx="158.7" cy="429.1" r="1.9" style="fill:#fff"/><circle cx="127.9" cy="446.3" r="1.9" style="fill:#fff"/><circle cx="191.3" cy="450.2" r="2.6" style="fill:#fff"/><circle cx="122.7" cy="475.4" r="2.6" style="fill:#fff"/><circle cx="191.5" cy="488.2" r="10.8" style="fill:#fff"/><path d="M343.5,551.8c0,8.2-15,14.9-23.2,14.9a14.9,14.9,0,0,1,0-29.8C328.5,536.9,343.5,543.6,343.5,551.8Z" transform="translate(-154.8 -74.4)" style="fill:#fff"/><circle cx="644.4" cy="482.9" r="12.6" style="fill:#fff"/><circle cx="650.5" cy="509.3" r="9.4" style="fill:#fff"/><circle cx="668.5" cy="490.6" r="14.1" style="fill:#fff"/><circle cx="635.8" cy="495.5" r="14.1" style="fill:#fff"/><circle cx="635.8" cy="495.5" r="14.1" style="fill:#fff"/><circle cx="681.4" cy="501.6" r="10.9" style="fill:#fff"/><circle cx="651.9" cy="495.5" r="10.9" style="fill:#fff"/><circle cx="659.5" cy="476.5" r="7.6" style="fill:#fff"/><circle cx="630.4" cy="480" r="9.7" style="fill:#fff"/><circle cx="662.8" cy="517.1" r="7.6" style="fill:#fff"/><circle cx="657.5" cy="461" r="3.8" style="fill:#fff"/><circle cx="612" cy="498.7" r="3.8" style="fill:#fff"/><circle cx="649.6" cy="446" r="2.6" style="fill:#fff"/><circle cx="663.5" cy="441.9" r="1.7" style="fill:#fff"/><circle cx="617.5" cy="468.9" r="1.7" style="fill:#fff"/><circle cx="681.5" cy="510.9" r="10.8" style="fill:#fff"/><circle cx="666.5" cy="507.6" r="9.5" style="fill:#fff"/><polygon points="626.4 496 677.9 525.5 674.6 502.6 628.1 489.8 626.4 496" style="fill:#fff"/><circle cx="629.4" cy="257.5" r="12.6" style="fill:#fff"/><circle cx="621.9" cy="282.2" r="12.6" style="fill:#fff"/><circle cx="605.3" cy="265.2" r="14.1" style="fill:#fff"/><circle cx="592.4" cy="276.2" r="10.9" style="fill:#fff"/><circle cx="621.9" cy="270.1" r="10.9" style="fill:#fff"/><circle cx="611" cy="296.2" r="10.9" style="fill:#fff"/><circle cx="648.1" cy="262.5" r="15.3" style="fill:#fff"/><circle cx="614.3" cy="251.1" r="7.6" style="fill:#fff"/><circle cx="640" cy="276.9" r="10.2" style="fill:#fff"/><circle cx="616.2" cy="235.6" r="3.8" style="fill:#fff"/><circle cx="672" cy="265.2" r="3.8" style="fill:#fff"/><circle cx="624.2" cy="220.6" r="2.6" style="fill:#fff"/><circle cx="652.3" cy="234.3" r="2.6" style="fill:#fff"/><circle cx="603.3" cy="221.5" r="1.7" style="fill:#fff"/><circle cx="635" cy="296.8" r="1.7" style="fill:#fff"/><circle cx="592.3" cy="285.4" r="10.8" style="fill:#fff"/><circle cx="607.3" cy="282.2" r="9.5" style="fill:#fff"/><circle cx="308.4" cy="176" r="12.6" style="fill:#fff"/><circle cx="323.5" cy="169.6" r="7.6" style="fill:#fff"/><circle cx="329.8" cy="154.2" r="3.8" style="fill:#fff"/><circle cx="381.9" cy="187.8" r="3.8" style="fill:#fff"/><circle cx="313.6" cy="139.1" r="2.6" style="fill:#fff"/><circle cx="336.2" cy="137.4" r="1.7" style="fill:#fff"/><circle cx="383.3" cy="204.7" r="1.7" style="fill:#fff"/><path d="M467.2,260a12.65,12.65,0,0,0-25.1,0,2.47,2.47,0,0,0,1.2,2.3L461,272.4A12.5,12.5,0,0,0,467.2,260Z" transform="translate(-154.8 -74.4)" style="fill:#fff"/><path d="M470.7,252.1A10.93,10.93,0,0,0,459.8,263c0,3.9-6.2,5.6,3,10.5l18.8-10.8A10.93,10.93,0,0,0,470.7,252.1Z" transform="translate(-154.8 -74.4)" style="fill:#fff"/><path d="M501.4,258.8v-.7a14.1,14.1,0,1,0-28.2,0,13.5,13.5,0,0,0,2.5,7.9l19.1-11Z" transform="translate(-154.8 -74.4)" style="fill:#fff"/><path d="M514.7,281.2l13.5-7.8a12.6,12.6,0,0,0-9.3-4.1,14.21,14.21,0,0,0-4.2.7Z" transform="translate(-154.8 -74.4)" style="fill:#fff"/><circle cx="385.8" cy="289.6" r="12.6" style="fill:#fff"/><circle cx="513.1" cy="373.7" r="14.1" transform="translate(-92.76 745.91) rotate(-80.78)" style="fill:#fff"/><circle cx="375" cy="304.2" r="10.9" style="fill:#fff"/><circle cx="369.7" cy="287.2" r="7.6" style="fill:#fff"/><circle cx="369.3" cy="269.7" r="3.8" style="fill:#fff"/><circle cx="315.3" cy="322.2" r="3.8" style="fill:#fff"/><circle cx="377.2" cy="254.7" r="2.6" style="fill:#fff"/><circle cx="336.4" cy="284.6" r="2.6" style="fill:#fff"/><circle cx="356.4" cy="255.6" r="1.7" style="fill:#fff"/><circle cx="317" cy="292.8" r="1.7" style="fill:#fff"/><path d="M536.6,373.7a12.65,12.65,0,0,1,25.1,0,2.47,2.47,0,0,1-1.2,2.3l-17.7,10.1A12.67,12.67,0,0,1,536.6,373.7Z" transform="translate(-154.8 -74.4)" style="fill:#fff"/><path d="M495.2,383.3l16.9,4.8a16.92,16.92,0,1,0-16.9,18V383.3Z" transform="translate(-154.8 -74.4)" style="fill:#fff"/><path d="M495.2,400.5c-.4,0-.7-.1-1.1-.1a12,12,0,0,0,0,24,3.75,3.75,0,0,0,1.1-.1Z" transform="translate(-154.8 -74.4)" style="fill:#fff"/><polyline points="200.5 438.2 200.5 494.9 222.7 507.6 222.7 451" style="fill:#ffc7ae"/><polyline points="222.7 451 263 427.7 240.8 414.8 200.5 438.2" style="fill:#ff9750"/><polygon points="236.5 499.7 195.7 523.1 195.5 507.2 236.5 483.8 236.5 499.7" style="fill:#e26a1a"/><polygon points="173.5 494.4 195.5 507.4 222.7 491.8 200.6 478.9 173.5 494.4" style="fill:#ff9750"/><polygon points="173.4 510.3 232.8 544.9 232.8 529.1 173.4 494.4 173.4 510.3" style="fill:#ffc7ae"/><polygon points="236.5 443.1 236.5 501.1 222.7 509.1 222.7 451 236.5 443.1" style="fill:#e26a1a"/><polygon points="249.9 512.7 195.5 481.6 173.4 494.5 232.8 529 249.9 512.7" style="fill:#ff9750"/><polygon points="677 468 677 524.7 699.2 537.4 699.2 480.8 713 472.9 690.7 460 677 468" style="fill:#ffc7ae"/><polygon points="713 472.9 713 529.5 699.2 537.4 699.2 480.8 713 472.9" style="fill:#e26a1a"/><polygon points="858.9 388.1 699.2 480.8 699.1 465 858.9 372.2 858.9 388.1" style="fill:#e26a1a"/><polygon points="677 452.1 699.1 465.1 858.9 372.3 836.7 359.4 677 452.1" style="fill:#ff9750"/><polygon points="677 468 699.2 480.9 699.2 465 677 452.2 677 468" style="fill:#ffc7ae"/><polygon points="699.3 537.5 541.8 628.7 541.7 612.8 699.3 521.6 699.3 537.5" style="fill:#e26a1a"/><polygon points="519.7 600 541.7 613 699.3 521.7 677.1 508.8 519.7 600" style="fill:#ff9750"/><polygon points="519.6 615.9 541.9 628.8 541.9 612.9 519.6 600.1 519.6 615.9" style="fill:#ffc7ae"/><polygon points="340.7 368.6 100.8 230.1 100.8 246 340.7 384.5 340.7 368.6" style="fill:#ffc7ae"/><polygon points="376.5 307 354.3 319.9 354.3 392.3 376.5 379.5 376.5 307" style="fill:#ff9750"/><polygon points="340.4 311.8 354.3 319.9 354.3 392.3 340.4 384.3 340.4 311.8" style="fill:#ffc7ae"/><polygon points="498.6 374.6 362.5 296 340.4 308.9 476.3 387.4 498.6 374.6" style="fill:#ff9750"/><polygon points="454.1 374.6 340.4 308.9 340.4 324.8 440.4 382.5 454.1 374.6" style="fill:#ffc7ae"/><polygon points="498.6 390.4 476.3 403.2 476.3 387.4 498.6 374.6 498.6 390.4" style="fill:#ffc7ae"/><polygon points="718.9 357.6 573.1 274.3 562.6 293.8 696.7 370.5 718.9 357.6" style="fill:#ff9750"/><polygon points="696.7 370.4 558.6 291.5 558.6 307.4 696.7 386.3 696.7 370.4" style="fill:#ffc7ae"/><polygon points="718.9 373.4 696.7 386.3 696.7 370.5 718.9 357.6 718.9 373.4" style="fill:#ffc7ae"/><polygon points="595.7 224.5 573.1 211.6 551 224.4 573.5 237.4 595.7 224.5" style="fill:#ff9750"/><polygon points="573.5 237.3 558.6 228.8 558.6 291.6 573.5 300.1 573.5 237.3" style="fill:#ffc7ae"/><polygon points="595.7 287.2 573.5 300 573.5 237.4 595.7 224.5 595.7 287.2" style="fill:#ff9750"/><polygon points="718.9 373.7 630.4 425.1 630.3 409.3 718.9 357.9 718.9 373.7" style="fill:#e26a1a"/><polygon points="608.2 396.5 630.3 409.4 718.9 357.9 696.7 345 608.2 396.5" style="fill:#ff9750"/><polygon points="608.2 412.3 630.4 425.2 630.4 409.4 608.2 396.5 608.2 412.3" style="fill:#ffc7ae"/><g style="opacity:0.4000000059604645"><line x1="489.1" y1="338.8" x2="501.8" y2="346.1" style="fill:none;stroke:#fff;stroke-linecap:round;stroke-linejoin:round;stroke-width:3px"/><line x1="432" y1="305.9" x2="479.4" y2="333.2" style="fill:none;stroke:#fff;stroke-linecap:round;stroke-linejoin:round;stroke-width:3px"/><line x1="466.9" y1="344.2" x2="515.8" y2="372.4" style="fill:none;stroke:#fff;stroke-linecap:round;stroke-linejoin:round;stroke-width:3px"/><line x1="270" y1="190.1" x2="249.2" y2="202.2" style="fill:none;stroke:#fff;stroke-linecap:round;stroke-linejoin:round;stroke-width:3px"/><line x1="250.3" y1="277.6" x2="278.7" y2="293.9" style="fill:none;stroke:#fff;stroke-linecap:round;stroke-linejoin:round;stroke-width:3px"/><line x1="303.1" y1="296.2" x2="306.3" y2="298" style="fill:none;stroke:#fff;stroke-linecap:round;stroke-linejoin:round;stroke-width:3px"/><line x1="278.7" y1="282.1" x2="295.8" y2="291.9" style="fill:none;stroke:#fff;stroke-linecap:round;stroke-linejoin:round;stroke-width:3px"/><path d="M377.4,308.9l-5.8,3.3c-9.7,5.6-9.8,14.7,0,20.4l19.5,11.3" transform="translate(-154.8 -74.4)" style="fill:none;stroke:#fff;stroke-linecap:round;stroke-linejoin:round;stroke-width:3px"/><path d="M566,222.5l36.8-21.2c10.4-6,27.4-6,37.8,0l41.3,23.9" transform="translate(-154.8 -74.4)" style="fill:none;stroke:#fff;stroke-linecap:round;stroke-linejoin:round;stroke-width:3px"/><path d="M540,236.2l-22.6,13.1" transform="translate(-154.8 -74.4)" style="fill:none;stroke:#fff;stroke-linecap:round;stroke-linejoin:round;stroke-width:3px"/><path d="M555.6,244.5l39.6-22.9" transform="translate(-154.8 -74.4)" style="fill:none;stroke:#fff;stroke-linecap:round;stroke-linejoin:round;stroke-width:3px"/><line x1="451.5" y1="432.5" x2="475.8" y2="418.5" style="fill:none;stroke:#fff;stroke-linecap:round;stroke-linejoin:round;stroke-width:3px"/><line x1="486.5" y1="412.3" x2="491.4" y2="409.5" style="fill:none;stroke:#fff;stroke-linecap:round;stroke-linejoin:round;stroke-width:3px"/><line x1="497.6" y1="425.9" x2="527" y2="409" style="fill:none;stroke:#fff;stroke-linecap:round;stroke-linejoin:round;stroke-width:3px"/><line x1="292.1" y1="527" x2="322.4" y2="509.5" style="fill:none;stroke:#fff;stroke-linecap:round;stroke-linejoin:round;stroke-width:3px"/><line x1="286.2" y1="548.4" x2="303.6" y2="538.4" style="fill:none;stroke:#fff;stroke-linecap:round;stroke-linejoin:round;stroke-width:3px"/><path d="M668.2,236.9l57.1,33" transform="translate(-154.8 -74.4)" style="fill:none;stroke:#fff;stroke-linecap:round;stroke-linejoin:round;stroke-width:3px"/><path d="M803.3,378l21.6,12.5" transform="translate(-154.8 -74.4)" style="fill:none;stroke:#fff;stroke-linecap:round;stroke-linejoin:round;stroke-width:3px"/><path d="M837.6,378l43.1,24.9" transform="translate(-154.8 -74.4)" style="fill:none;stroke:#fff;stroke-linecap:round;stroke-linejoin:round;stroke-width:3px"/><path d="M703.5,237.8l17.1,9.9" transform="translate(-154.8 -74.4)" style="fill:none;stroke:#fff;stroke-linecap:round;stroke-linejoin:round;stroke-width:3px"/><path d="M879.4,420.1l11.1,6.4c10.4,6,10.4,15.8,0,21.8l-26.7,15.4" transform="translate(-154.8 -74.4)" style="fill:none;stroke:#fff;stroke-linecap:round;stroke-linejoin:round;stroke-width:3px"/><path d="M917.6,426c9.5,5.5,13.1,13.1,10.7,20.2" transform="translate(-154.8 -74.4)" style="fill:none;stroke:#fff;stroke-linecap:round;stroke-linejoin:round;stroke-width:3px"/><path d="M899,466.4l-49.8,28.8" transform="translate(-154.8 -74.4)" style="fill:none;stroke:#fff;stroke-linecap:round;stroke-linejoin:round;stroke-width:3px"/><path d="M699.6,449.7c10.4,6,10.4,15.8,0,21.8" transform="translate(-154.8 -74.4)" style="fill:none;stroke:#fff;stroke-linecap:round;stroke-linejoin:round;stroke-width:3px"/><line x1="673.5" y1="481.4" x2="673.5" y2="472.6" style="fill:none;stroke:#fff;stroke-linecap:round;stroke-linejoin:round;stroke-width:3px"/><path d="M808.5,508.3v-3.8c0-4.8,3.3-10.6,7.5-12.9l16.3-9.4" transform="translate(-154.8 -74.4)" style="fill:none;stroke:#fff;stroke-linecap:round;stroke-linejoin:round;stroke-width:3px"/><path d="M828.3,535.4V518.6c0-4.8,3.3-10.6,7.5-12.9l2.7-1.6" transform="translate(-154.8 -74.4)" style="fill:none;stroke:#fff;stroke-linecap:round;stroke-linejoin:round;stroke-width:3px"/><path d="M726.8,630.6l-16.5,9.5c-8.5,4.9-22.2,4.9-30.6,0l-33.5-19.3" transform="translate(-154.8 -74.4)" style="fill:none;stroke:#fff;stroke-linecap:round;stroke-linejoin:round;stroke-width:3px"/><path d="M422.7,634.2l-16.5,9.5c-8.5,4.9-22.2,4.9-30.6,0l-33.5-19.3" transform="translate(-154.8 -74.4)" style="fill:none;stroke:#fff;stroke-linecap:round;stroke-linejoin:round;stroke-width:3px"/><path d="M774.2,603.3l-9.9,5.7" transform="translate(-154.8 -74.4)" style="fill:none;stroke:#fff;stroke-linecap:round;stroke-linejoin:round;stroke-width:3px"/><path d="M749.1,598.9l-29.4,17" transform="translate(-154.8 -74.4)" style="fill:none;stroke:#fff;stroke-linecap:round;stroke-linejoin:round;stroke-width:3px"/><line x1="461.5" y1="508" x2="450.4" y2="501.6" style="fill:none;stroke:#fff;stroke-linecap:round;stroke-linejoin:round;stroke-width:3px"/><path d="M663.5,609.6l-33-19" transform="translate(-154.8 -74.4)" style="fill:none;stroke:#fff;stroke-linecap:round;stroke-linejoin:round;stroke-width:3px"/><path d="M554,548.4l-58.3-33.6" transform="translate(-154.8 -74.4)" style="fill:none;stroke:#fff;stroke-linecap:round;stroke-linejoin:round;stroke-width:3px"/><path d="M361.1,617.2l-29.4-16.9" transform="translate(-154.8 -74.4)" style="fill:none;stroke:#fff;stroke-linecap:round;stroke-linejoin:round;stroke-width:3px"/><line x1="331.7" y1="453.8" x2="285.8" y2="427.2" style="fill:none;stroke:#fff;stroke-linecap:round;stroke-linejoin:round;stroke-width:3px"/><path d="M507.8,540.5l-9.2-5.3" transform="translate(-154.8 -74.4)" style="fill:none;stroke:#fff;stroke-linecap:round;stroke-linejoin:round;stroke-width:3px"/><path d="M324.6,614.4l-19.2-11.1" transform="translate(-154.8 -74.4)" style="fill:none;stroke:#fff;stroke-linecap:round;stroke-linejoin:round;stroke-width:3px"/><path d="M369.5,466.6l7-4.1c8.1-4.7,21.2-4.7,29.3,0l25.7,14.8" transform="translate(-154.8 -74.4)" style="fill:none;stroke:#fff;stroke-linecap:round;stroke-linejoin:round;stroke-width:3px"/><path d="M322.2,509.6v-3.8c0-4.8,3.3-10.6,7.5-12.9l16.3-9.4" transform="translate(-154.8 -74.4)" style="fill:none;stroke:#fff;stroke-linecap:round;stroke-linejoin:round;stroke-width:3px"/><path d="M342.9,536.7V519.9c0-4.8,3.3-10.6,7.5-12.9l2.7-1.6" transform="translate(-154.8 -74.4)" style="fill:none;stroke:#fff;stroke-linecap:round;stroke-linejoin:round;stroke-width:3px"/><path d="M373.1,483.5l-8.5,5" transform="translate(-154.8 -74.4)" style="fill:none;stroke:#fff;stroke-linecap:round;stroke-linejoin:round;stroke-width:3px"/><path d="M281.7,566.2l-9.1,5.3c-6.3,3.6-6.3,9.5,0,13.1l6.9,4" transform="translate(-154.8 -74.4)" style="fill:none;stroke:#fff;stroke-linecap:round;stroke-linejoin:round;stroke-width:3px"/><path d="M771.7,292.4v-3.8c0-4.8-3.3-10.6-7.5-12.9l-16.3-9.4" transform="translate(-154.8 -74.4)" style="fill:none;stroke:#fff;stroke-linecap:round;stroke-linejoin:round;stroke-width:3px"/></g><g style="opacity:0.20000000298023224"><polyline points="509.7 85.4 487.7 98.2 487.7 113.5" style="fill:none;stroke:#ed683a;stroke-linecap:round;stroke-linejoin:round"/><polyline points="552.9 110.2 530.9 123 530.9 138.3" style="fill:none;stroke:#ed683a;stroke-linecap:round;stroke-linejoin:round"/><polyline points="595.7 135.4 573.8 148.1 573.8 163.4" style="fill:none;stroke:#ed683a;stroke-linecap:round;stroke-linejoin:round"/><polyline points="640.4 159.4 618.4 172.2 618.4 187.5" style="fill:none;stroke:#ed683a;stroke-linecap:round;stroke-linejoin:round"/><line x1="674.4" y1="179" x2="652.5" y2="191.7" style="fill:none;stroke:#ed683a;stroke-linecap:round;stroke-linejoin:round"/><polyline points="674.4 212 652.5 224.7 630.3 212.4" style="fill:none;stroke:#ed683a;stroke-linecap:round;stroke-linejoin:round"/><line x1="674.4" y1="242.1" x2="659.6" y2="250.3" style="fill:none;stroke:#ed683a;stroke-linecap:round;stroke-linejoin:round"/><polyline points="707.4 260.5 685.5 273.2 685.5 288.5" style="fill:none;stroke:#ed683a;stroke-linecap:round;stroke-linejoin:round"/><polyline points="750.6 285.3 728.7 298 728.7 313.3" style="fill:none;stroke:#ed683a;stroke-linecap:round;stroke-linejoin:round"/><polyline points="793.5 310.4 771.5 323.1 771.5 338.4" style="fill:none;stroke:#ed683a;stroke-linecap:round;stroke-linejoin:round"/><polyline points="836.9 335.2 816.2 347.2 816.2 362.5" style="fill:none;stroke:#ed683a;stroke-linecap:round;stroke-linejoin:round"/><polyline points="822.9 367.5 844.8 380.3 844.8 395.5" style="fill:none;stroke:#ed683a;stroke-linecap:round;stroke-linejoin:round"/><polyline points="787.7 388.5 809.7 401.2 809.7 416.5" style="fill:none;stroke:#ed683a;stroke-linecap:round;stroke-linejoin:round"/><polyline points="749.6 410.2 771.5 422.9 771.5 438.1" style="fill:none;stroke:#ed683a;stroke-linecap:round;stroke-linejoin:round"/><polyline points="709 433.6 731 446.4 731 461.6" style="fill:none;stroke:#ed683a;stroke-linecap:round;stroke-linejoin:round"/><polyline points="666 363.3 688 376 688 391.2" style="fill:none;stroke:#ed683a;stroke-linecap:round;stroke-linejoin:round"/><polyline points="631 384.2 653 396.9 653 412.1" style="fill:none;stroke:#ed683a;stroke-linecap:round;stroke-linejoin:round"/><polyline points="643.7 437.9 630.5 445.6 608.3 433.3" style="fill:none;stroke:#ed683a;stroke-linecap:round;stroke-linejoin:round"/><polyline points="712.7 482.6 699.5 490.3 677.3 478" style="fill:none;stroke:#ed683a;stroke-linecap:round;stroke-linejoin:round"/><polyline points="594.3 468 616.3 480.7 616.3 495.9" style="fill:none;stroke:#ed683a;stroke-linecap:round;stroke-linejoin:round"/><polyline points="560.1 487.6 582 500.3 582 515.6" style="fill:none;stroke:#ed683a;stroke-linecap:round;stroke-linejoin:round"/><polyline points="535.9 495.3 513.9 508 513.9 523.3" style="fill:none;stroke:#ed683a;stroke-linecap:round;stroke-linejoin:round"/><polyline points="488.7 468.9 466.7 481.7 466.7 496.9" style="fill:none;stroke:#ed683a;stroke-linecap:round;stroke-linejoin:round"/><polyline points="437.5 439.8 415.5 452.5 415.5 467.7" style="fill:none;stroke:#ed683a;stroke-linecap:round;stroke-linejoin:round"/><polyline points="389.5 412 367.5 424.7 367.5 439.9" style="fill:none;stroke:#ed683a;stroke-linecap:round;stroke-linejoin:round"/><polyline points="342.3 385.6 320.3 398.3 320.3 413.5" style="fill:none;stroke:#ed683a;stroke-linecap:round;stroke-linejoin:round"/><polyline points="291 356.4 269.1 369.1 269.1 384.4" style="fill:none;stroke:#ed683a;stroke-linecap:round;stroke-linejoin:round"/><polyline points="518.5 572.3 496.5 585 496.5 600.2" style="fill:none;stroke:#ed683a;stroke-linecap:round;stroke-linejoin:round"/><polyline points="467.2 543.1 445.3 555.8 445.3 571.1" style="fill:none;stroke:#ed683a;stroke-linecap:round;stroke-linejoin:round"/><polyline points="419.2 515.3 397.3 528 397.3 543.2" style="fill:none;stroke:#ed683a;stroke-linecap:round;stroke-linejoin:round"/><polyline points="274.7 435.2 252.8 447.9 252.8 463.1" style="fill:none;stroke:#ed683a;stroke-linecap:round;stroke-linejoin:round"/><polyline points="372 488.9 350.1 501.6 350.1 516.9" style="fill:none;stroke:#ed683a;stroke-linecap:round;stroke-linejoin:round"/><polyline points="320.8 459.7 298.9 472.5 298.9 487.7" style="fill:none;stroke:#ed683a;stroke-linecap:round;stroke-linejoin:round"/><line x1="229.8" y1="357.8" x2="229.8" y2="373" style="fill:none;stroke:#ed683a;stroke-linecap:round;stroke-linejoin:round"/><polyline points="162.5 371.6 184.5 384.3 184.5 399.6" style="fill:none;stroke:#ed683a;stroke-linecap:round;stroke-linejoin:round"/><polyline points="93.7 452.8 115.6 465.5 115.6 480.7" style="fill:none;stroke:#ed683a;stroke-linecap:round;stroke-linejoin:round"/><polyline points="55.9 474.2 77.8 486.9 77.8 502.2" style="fill:none;stroke:#ed683a;stroke-linecap:round;stroke-linejoin:round"/><polyline points="163.7 411.9 144.9 422.9 122.7 410.6" style="fill:none;stroke:#ed683a;stroke-linecap:round;stroke-linejoin:round"/><polyline points="222.3 586.5 200.4 599.2 200.4 614.5" style="fill:none;stroke:#ed683a;stroke-linecap:round;stroke-linejoin:round"/><polyline points="174.3 558.7 152.4 571.4 152.4 586.6" style="fill:none;stroke:#ed683a;stroke-linecap:round;stroke-linejoin:round"/><polyline points="127.1 531.3 105.2 544 105.2 559.3" style="fill:none;stroke:#ed683a;stroke-linecap:round;stroke-linejoin:round"/><polyline points="75.9 502.1 53.9 514.9 53.9 530.1" style="fill:none;stroke:#ed683a;stroke-linecap:round;stroke-linejoin:round"/><polyline points="329.8 537.8 351.7 550.5 351.7 565.8" style="fill:none;stroke:#ed683a;stroke-linecap:round;stroke-linejoin:round"/><polyline points="291.6 559.5 313.6 572.2 313.6 587.4" style="fill:none;stroke:#ed683a;stroke-linecap:round;stroke-linejoin:round"/><polyline points="251.1 582.9 273 595.7 273 610.9" style="fill:none;stroke:#ed683a;stroke-linecap:round;stroke-linejoin:round"/><polyline points="584.3 390 606.2 402.7 606.2 417.9" style="fill:none;stroke:#ed683a;stroke-linecap:round;stroke-linejoin:round"/><polyline points="546.1 411.6 568.1 424.4 568.1 439.6" style="fill:none;stroke:#ed683a;stroke-linecap:round;stroke-linejoin:round"/><polyline points="505.6 435.1 527.5 447.8 527.5 463.1" style="fill:none;stroke:#ed683a;stroke-linecap:round;stroke-linejoin:round"/><polyline points="612.8 351.7 590.8 364.4 590.8 379.6" style="fill:none;stroke:#ed683a;stroke-linecap:round;stroke-linejoin:round"/><polyline points="565.5 325.3 543.6 338 543.6 353.3" style="fill:none;stroke:#ed683a;stroke-linecap:round;stroke-linejoin:round"/><polyline points="514.3 296.2 492.4 308.9 492.4 324.1" style="fill:none;stroke:#ed683a;stroke-linecap:round;stroke-linejoin:round"/><polyline points="466.3 268.3 444.4 281.1 444.4 296.3" style="fill:none;stroke:#ed683a;stroke-linecap:round;stroke-linejoin:round"/><line x1="400.7" y1="285.2" x2="416.6" y2="294.4" style="fill:none;stroke:#ed683a;stroke-linecap:round;stroke-linejoin:round"/><polyline points="344.3 260.9 322.3 273.6 322.3 289.9" style="fill:none;stroke:#ed683a;stroke-linecap:round;stroke-linejoin:round"/><polyline points="293 231.7 271.1 244.5 271.1 259.7" style="fill:none;stroke:#ed683a;stroke-linecap:round;stroke-linejoin:round"/><polyline points="399.5 184.2 421.5 196.9 421.5 212.2" style="fill:none;stroke:#ed683a;stroke-linecap:round;stroke-linejoin:round"/><polyline points="361.4 206.4 383.3 219.1 383.3 234.4" style="fill:none;stroke:#ed683a;stroke-linecap:round;stroke-linejoin:round"/><polyline points="435.8 163.4 457.7 176.1 457.7 191.4" style="fill:none;stroke:#ed683a;stroke-linecap:round;stroke-linejoin:round"/><polyline points="304.7 200.5 326.7 213.2 326.7 228.4" style="fill:none;stroke:#ed683a;stroke-linecap:round;stroke-linejoin:round"/><polyline points="505.9 173.6 484 186.3 484 201.6" style="fill:none;stroke:#ed683a;stroke-linecap:round;stroke-linejoin:round"/><polyline points="549.2 198.4 527.2 211.1 527.2 226.4" style="fill:none;stroke:#ed683a;stroke-linecap:round;stroke-linejoin:round"/><polyline points="595 247.2 573.5 259.7 558.6 251.4" style="fill:none;stroke:#ed683a;stroke-linecap:round;stroke-linejoin:round"/><polyline points="595 287.2 573.5 299.7 558.6 291.4" style="fill:none;stroke:#ed683a;stroke-linecap:round;stroke-linejoin:round"/><polyline points="678.7 334.4 656.8 347.1 656.8 362.3" style="fill:none;stroke:#ed683a;stroke-linecap:round;stroke-linejoin:round"/><polyline points="631.5 308 609.6 320.7 609.6 336" style="fill:none;stroke:#ed683a;stroke-linecap:round;stroke-linejoin:round"/><polyline points="663 516.8 684.9 529.6 684.9 544.8" style="fill:none;stroke:#ed683a;stroke-linecap:round;stroke-linejoin:round"/><polyline points="627.8 537.8 649.8 550.5 649.8 565.7" style="fill:none;stroke:#ed683a;stroke-linecap:round;stroke-linejoin:round"/><polyline points="543.6 587.3 565.5 600 565.5 615.2" style="fill:none;stroke:#ed683a;stroke-linecap:round;stroke-linejoin:round"/><polyline points="589.7 559.5 611.6 572.2 611.6 587.4" style="fill:none;stroke:#ed683a;stroke-linecap:round;stroke-linejoin:round"/><polyline points="447.1 379.3 468.4 391.7 468.4 406.9" style="fill:none;stroke:#ed683a;stroke-linecap:round;stroke-linejoin:round"/><polyline points="406.9 403 427.9 415.1 427.9 430.9" style="fill:none;stroke:#ed683a;stroke-linecap:round;stroke-linejoin:round"/><polyline points="450.1 347.2 428.2 360 428.2 375.2" style="fill:none;stroke:#ed683a;stroke-linecap:round;stroke-linejoin:round"/><polyline points="402.9 320.8 380.9 333.6 380.9 347.2" style="fill:none;stroke:#ed683a;stroke-linecap:round;stroke-linejoin:round"/><polyline points="329.9 348.4 318.9 354.8 318.9 370" style="fill:none;stroke:#ed683a;stroke-linecap:round;stroke-linejoin:round"/><polyline points="293.6 315.7 271.7 328.4 271.7 343.7" style="fill:none;stroke:#ed683a;stroke-linecap:round;stroke-linejoin:round"/><polyline points="242.4 286.5 220.5 299.3 220.5 314.5" style="fill:none;stroke:#ed683a;stroke-linecap:round;stroke-linejoin:round"/><polyline points="194.4 258.7 172.5 271.4 172.5 286.7" style="fill:none;stroke:#ed683a;stroke-linecap:round;stroke-linejoin:round"/><polyline points="340.7 356.1 354.3 364 376 351.5" style="fill:none;stroke:#ed683a;stroke-linecap:round;stroke-linejoin:round"/><polyline points="204.2 171.3 226.2 184 226.2 199.2" style="fill:none;stroke:#ed683a;stroke-linecap:round;stroke-linejoin:round"/><polyline points="166.1 193.5 188 206.2 188 221.5" style="fill:none;stroke:#ed683a;stroke-linecap:round;stroke-linejoin:round"/><polyline points="240.5 150.5 262.4 163.2 262.4 178.5" style="fill:none;stroke:#ed683a;stroke-linecap:round;stroke-linejoin:round"/><polyline points="394.3 101.6 416.2 114.3 416.2 128.5" style="fill:none;stroke:#ed683a;stroke-linecap:round;stroke-linejoin:round"/><polyline points="310.6 149.7 332.6 162.4 332.6 168.9" style="fill:none;stroke:#ed683a;stroke-linecap:round;stroke-linejoin:round"/><polyline points="356.1 123.8 378.1 136.5 378.1 150.7" style="fill:none;stroke:#ed683a;stroke-linecap:round;stroke-linejoin:round"/><polyline points="430.5 80.8 452.5 93.5 452.5 108.8" style="fill:none;stroke:#ed683a;stroke-linecap:round;stroke-linejoin:round"/><polyline points="271.6 481.3 293.6 494 293.6 509.2" style="fill:none;stroke:#ed683a;stroke-linecap:round;stroke-linejoin:round"/><polyline points="233.5 502.9 255.4 515.7 255.4 530.9" style="fill:none;stroke:#ed683a;stroke-linecap:round;stroke-linejoin:round"/><polyline points="218.2 494.8 196.3 507.6 196.3 522.8" style="fill:none;stroke:#ed683a;stroke-linecap:round;stroke-linejoin:round"/><polyline points="235.9 464 223.4 471.2 200.9 458.8" style="fill:none;stroke:#ed683a;stroke-linecap:round;stroke-linejoin:round"/></g><polygon points="459.9 603 393.1 641.6 326.3 603 393.1 564.5 459.9 603" style="fill:#ff9750"/><polygon points="393.1 657.5 326.3 618.9 326.3 603 393.1 641.6 393.1 657.5" style="fill:#ffc7ae"/><polygon points="459.9 618.9 393.1 657.5 393.1 641.6 459.9 603 459.9 618.9" style="fill:#e26a1a"/><path d="M538.1,627.8c-4.3,3.5-5.2,6.8-8.5,11.4-5.2,7.2,1.9,9-8.5,18.4-2.4,2.2-3.5,7.1-3,10.3,5.1,36.4,81.6,17.4,53.8-13.1-9-9.9-3.1-14.5-14.7-22.2C546.3,625.3,550.5,617.7,538.1,627.8Z" transform="translate(-154.8 -74.4)" style="fill:#17bc7d"/><path d="M544.5,697.6a6.78,6.78,0,0,1,.6,5.2,15.63,15.63,0,0,1,3.9-4.2" transform="translate(-154.8 -74.4)" style="fill:none;stroke:#ed683a;stroke-linecap:round;stroke-linejoin:round;stroke-width:3px"/><path d="M541.7,699.2a19.35,19.35,0,0,1,3.4,3.6" transform="translate(-154.8 -74.4)" style="fill:none;stroke:#ed683a;stroke-linecap:round;stroke-linejoin:round;stroke-width:3px"/><path d="M591.8,674.3c.8,1.1,1.5,2.2,2.3,3.3a8.75,8.75,0,0,1,2.2-3.2" transform="translate(-154.8 -74.4)" style="fill:none;stroke:#ed683a;stroke-linecap:round;stroke-linejoin:round;stroke-width:3px"/><path d="M503.3,672.8c.8,1.1,1.5,2.2,2.3,3.3a8.75,8.75,0,0,1,2.2-3.2" transform="translate(-154.8 -74.4)" style="fill:none;stroke:#ed683a;stroke-linecap:round;stroke-linejoin:round;stroke-width:3px"/><path d="M670.3,318.4" transform="translate(-154.8 -74.4)" style="fill:#e2b700"/><path d="M675.9,307.9" transform="translate(-154.8 -74.4)" style="fill:#e2b700"/><polygon points="519.6 234.8 471.9 217.9 464.9 180.4 512.6 197.2 519.6 234.8" style="fill:#ffee1a"/><path d="M623.9,300.3a9.22,9.22,0,0,0,2.8-8l47.7,16.9a9.51,9.51,0,0,1-2.8,8c-2.1,1.8-4.1,1-4.6-1.6Z" transform="translate(-154.8 -74.4)" style="fill:#ffee1a"/><path d="M666.9,315.5l-.8-4.2-47.7-16.9.8,4.2a3,3,0,0,0,1.7,2.5l47.7,16.8C667.8,317.7,667.2,316.9,666.9,315.5Z" transform="translate(-154.8 -74.4)" style="fill:#e2b700"/><path d="M902.3,555.8" transform="translate(-154.8 -74.4)" style="fill:#e2b700"/><path d="M896.8,546.2" transform="translate(-154.8 -74.4)" style="fill:#e2b700"/><polygon points="743.4 473 787.3 455.9 792.8 420.7 748.9 437.7 743.4 473" style="fill:#ffee1a"/><path d="M945,537.7a9,9,0,0,1-2.9-7.4l-43.9,17.1a8.7,8.7,0,0,0,2.9,7.4c2,1.6,3.9.8,4.3-1.6Z" transform="translate(-154.8 -74.4)" style="fill:#ffee1a"/><path d="M905.3,553.1l.6-4L949.8,532l-.6,4a2.73,2.73,0,0,1-1.5,2.3l-43.9,17.1A2.89,2.89,0,0,0,905.3,553.1Z" transform="translate(-154.8 -74.4)" style="fill:#e2b700"/><ellipse cx="692.3" cy="357.4" rx="8.1" ry="4.7" style="fill:#dd5a26"/><path d="M839.7,433.8c-11.2-16.1-1.8-22.2-1.8-22.2h18.3s9.4,6-1.8,22.2Z" transform="translate(-154.8 -74.4)" style="fill:#dd5a26"/><ellipse cx="692.3" cy="334.8" rx="11.7" ry="6.8" style="fill:#dd5a26"/><rect x="680.6" y="334.8" width="23.5" height="1.9" style="fill:#dd5a26"/><ellipse cx="692.3" cy="336.6" rx="11.7" ry="6.8" style="fill:#dd5a26"/><ellipse cx="692.3" cy="334.8" rx="8.1" ry="4.7" style="fill:#6d2e1d"/><g style="clip-path:url(#clip-path)"><path d="M859.4,415.6c-7.1.4-3.2,12.9-12.3,12.9-9.7,0-5.2-12.6-12.3-12.9" transform="translate(-154.8 -74.4)" style="fill:none;stroke:#fff;stroke-linecap:round;stroke-linejoin:round"/></g><ellipse cx="677" cy="368.4" rx="5.9" ry="3.4" style="fill:#ad644b"/><path d="M826.5,444.3c-8.2-11.7-1.3-16.1-1.3-16.1h13.3s6.8,4.4-1.3,16.1Z" transform="translate(-154.8 -74.4)" style="fill:#ad644b"/><ellipse cx="677" cy="352" rx="8.5" ry="4.9" style="fill:#ad644b"/><rect x="668.5" y="352" width="17" height="1.4" style="fill:#ad644b"/><ellipse cx="677" cy="353.3" rx="8.5" ry="4.9" style="fill:#ad644b"/><ellipse cx="677" cy="352" rx="5.9" ry="3.4" style="fill:#6d2e1d"/><g style="clip-path:url(#clip-path-2)"><path d="M840.8,431c-5.2.3-2.3,9.4-8.9,9.4-7.1,0-3.8-9.1-8.9-9.4" transform="translate(-154.8 -74.4)" style="fill:none;stroke:#fff;stroke-linecap:round;stroke-linejoin:round"/></g><ellipse cx="234" cy="605" rx="8.1" ry="4.7" style="fill:#dd5a26"/><path d="M381.4,681.4c-11.2-16.1-1.8-22.2-1.8-22.2H398s9.4,6-1.8,22.2Z" transform="translate(-154.8 -74.4)" style="fill:#dd5a26"/><ellipse cx="234" cy="582.3" rx="11.7" ry="6.8" style="fill:#dd5a26"/><rect x="222.3" y="582.3" width="23.5" height="1.9" style="fill:#dd5a26"/><ellipse cx="234" cy="584.2" rx="11.7" ry="6.8" style="fill:#dd5a26"/><ellipse cx="234" cy="582.3" rx="8.1" ry="4.7" style="fill:#6d2e1d"/><g style="clip-path:url(#clip-path-3)"><path d="M401.1,663.1c-7.1.4-3.2,12.9-12.3,12.9-9.7,0-5.2-12.6-12.3-12.9" transform="translate(-154.8 -74.4)" style="fill:none;stroke:#fff;stroke-linecap:round;stroke-linejoin:round"/></g><ellipse cx="464.7" cy="77.4" rx="8.1" ry="4.7" style="fill:#dd5a26"/><path d="M612.1,153.8c-11.2-16.1-1.8-22.2-1.8-22.2h18.3s9.4,6-1.8,22.2Z" transform="translate(-154.8 -74.4)" style="fill:#dd5a26"/><ellipse cx="464.7" cy="54.7" rx="11.7" ry="6.8" style="fill:#dd5a26"/><rect x="453" y="54.7" width="23.5" height="1.9" style="fill:#dd5a26"/><ellipse cx="464.7" cy="56.6" rx="11.7" ry="6.8" style="fill:#dd5a26"/><ellipse cx="464.7" cy="54.7" rx="8.1" ry="4.7" style="fill:#6d2e1d"/><g style="clip-path:url(#clip-path-4)"><path d="M631.8,135.6c-7.1.4-3.2,12.9-12.3,12.9-9.7,0-5.2-12.6-12.3-12.9" transform="translate(-154.8 -74.4)" style="fill:none;stroke:#fff;stroke-linecap:round;stroke-linejoin:round"/></g><ellipse cx="449" cy="85" rx="5.9" ry="3.4" style="fill:#ad644b"/><path d="M598.5,160.8c-8.2-11.7-1.3-16.1-1.3-16.1h13.3s6.8,4.4-1.3,16.1Z" transform="translate(-154.8 -74.4)" style="fill:#ad644b"/><ellipse cx="449" cy="68.5" rx="8.5" ry="4.9" style="fill:#ad644b"/><rect x="440.5" y="68.5" width="17" height="1.4" style="fill:#ad644b"/><ellipse cx="449" cy="69.9" rx="8.5" ry="4.9" style="fill:#ad644b"/><ellipse cx="449" cy="68.5" rx="5.9" ry="3.4" style="fill:#6d2e1d"/><g style="clip-path:url(#clip-path-5)"><path d="M612.7,147.6c-5.2.3-2.3,9.4-8.9,9.4-7.1,0-3.8-9.1-8.9-9.4" transform="translate(-154.8 -74.4)" style="fill:none;stroke:#fff;stroke-linecap:round;stroke-linejoin:round"/></g><ellipse cx="481.5" cy="85" rx="5.9" ry="3.4" style="fill:#ad644b"/><path d="M631,160.8c-8.2-11.7-1.3-16.1-1.3-16.1H643s6.8,4.4-1.3,16.1Z" transform="translate(-154.8 -74.4)" style="fill:#ad644b"/><ellipse cx="481.5" cy="68.5" rx="8.5" ry="4.9" style="fill:#ad644b"/><rect x="473" y="68.5" width="17" height="1.4" style="fill:#ad644b"/><ellipse cx="481.5" cy="69.9" rx="8.5" ry="4.9" style="fill:#ad644b"/><ellipse cx="481.5" cy="68.5" rx="5.9" ry="3.4" style="fill:#6d2e1d"/><g style="clip-path:url(#clip-path-6)"><path d="M645.3,147.6c-5.2.3-2.3,9.4-8.9,9.4-7.1,0-3.8-9.1-8.9-9.4" transform="translate(-154.8 -74.4)" style="fill:none;stroke:#fff;stroke-linecap:round;stroke-linejoin:round"/></g><ellipse cx="217.6" cy="285.2" rx="5.9" ry="3.4" style="fill:#ad644b"/><path d="M367.1,361c-8.2-11.7-1.3-16.1-1.3-16.1h13.3s6.8,4.4-1.3,16.1Z" transform="translate(-154.8 -74.4)" style="fill:#ad644b"/><ellipse cx="217.6" cy="268.7" rx="8.5" ry="4.9" style="fill:#ad644b"/><rect x="209.1" y="268.7" width="17" height="1.4" style="fill:#ad644b"/><ellipse cx="217.6" cy="270.1" rx="8.5" ry="4.9" style="fill:#ad644b"/><ellipse cx="217.6" cy="268.7" rx="5.9" ry="3.4" style="fill:#6d2e1d"/><g style="clip-path:url(#clip-path-7)"><path d="M381.4,347.8c-5.2.3-2.3,9.4-8.9,9.4-7.1,0-3.8-9.1-8.9-9.4" transform="translate(-154.8 -74.4)" style="fill:none;stroke:#fff;stroke-linecap:round;stroke-linejoin:round"/></g><ellipse cx="544.3" cy="598.1" rx="5.9" ry="3.4" style="fill:#ad644b"/><path d="M693.7,673.9c-8.2-11.7-1.3-16.1-1.3-16.1h13.3s6.8,4.4-1.3,16.1Z" transform="translate(-154.8 -74.4)" style="fill:#ad644b"/><ellipse cx="544.3" cy="581.6" rx="8.5" ry="4.9" style="fill:#ad644b"/><rect x="535.8" y="581.6" width="17" height="1.4" style="fill:#ad644b"/><ellipse cx="544.3" cy="583" rx="8.5" ry="4.9" style="fill:#ad644b"/><ellipse cx="544.3" cy="581.6" rx="5.9" ry="3.4" style="fill:#6d2e1d"/><g style="clip-path:url(#clip-path-8)"><path d="M708,660.7c-5.2.3-2.3,9.4-8.9,9.4-7.1,0-3.8-9.1-8.9-9.4" transform="translate(-154.8 -74.4)" style="fill:none;stroke:#fff;stroke-linecap:round;stroke-linejoin:round"/></g><path d="M232,655.1" transform="translate(-154.8 -74.4)" style="fill:#e2b700"/><path d="M238.6,649.2" transform="translate(-154.8 -74.4)" style="fill:#e2b700"/><polygon points="82.4 575.3 53.4 551.1 58.2 522.9 87.3 547.1 82.4 575.3" style="fill:#ffee1a"/><path d="M204.1,630.4a7.23,7.23,0,0,0,4.1-4.9l29.1,24.2a7,7,0,0,1-4.1,4.9c-1.9.7-3.2-.3-2.8-2.3Z" transform="translate(-154.8 -74.4)" style="fill:#ffee1a"/><path d="M230.4,652.2l.5-3.2-29.1-24.2-.5,3.2a2.21,2.21,0,0,0,.6,2.2L231,654.4A2,2,0,0,1,230.4,652.2Z" transform="translate(-154.8 -74.4)" style="fill:#e2b700"/><ellipse cx="673.71" cy="382.8" rx="14.9" ry="25.9" transform="translate(-255.94 313.75) rotate(-30)" style="fill:#d6d6d6"/><polygon points="506.1 285.9 498.5 290.5 524 335.4 532.1 330.6 506.1 285.9" style="fill:#d6d6d6"/><ellipse cx="666.4" cy="387.18" rx="14.9" ry="25.9" transform="translate(-259.11 310.68) rotate(-30)" style="fill:#fff"/><ellipse cx="666.4" cy="387.18" rx="11.9" ry="20.7" transform="translate(-259.11 310.68) rotate(-30)" style="fill:#343538"/><ellipse cx="666.4" cy="387.18" rx="8.7" ry="15" transform="translate(-259.11 310.68) rotate(-30)" style="fill:#0acee8"/><ellipse cx="666.4" cy="387.18" rx="5" ry="8.6" transform="translate(-259.11 310.68) rotate(-30)" style="fill:#ff6464"/><ellipse cx="666.4" cy="387.18" rx="2" ry="3.4" transform="translate(-259.11 310.68) rotate(-30)" style="fill:#ffee1a"/><ellipse cx="612.19" cy="347.6" rx="14.9" ry="25.9" transform="translate(-246.58 278.27) rotate(-30)" style="fill:#d6d6d6"/><polygon points="444.5 250.8 437 255.3 462.5 300.2 470.6 295.4 444.5 250.8" style="fill:#d6d6d6"/><ellipse cx="604.89" cy="351.98" rx="14.9" ry="25.9" transform="translate(-249.75 275.21) rotate(-30)" style="fill:#fff"/><ellipse cx="604.89" cy="351.98" rx="11.9" ry="20.7" transform="translate(-249.75 275.21) rotate(-30)" style="fill:#343538"/><ellipse cx="604.89" cy="351.98" rx="8.7" ry="15" transform="translate(-249.75 275.21) rotate(-30)" style="fill:#0acee8"/><ellipse cx="604.89" cy="351.98" rx="5" ry="8.6" transform="translate(-249.75 275.21) rotate(-30)" style="fill:#ff6464"/><ellipse cx="604.89" cy="351.98" rx="2" ry="3.4" transform="translate(-249.75 275.21) rotate(-30)" style="fill:#ffee1a"/><path d="M587.5,361.3l-7.1,4.1a.19.19,0,0,1-.3,0l-3.2-.9a.39.39,0,0,1-.1-.7l7.1-4.1a.19.19,0,0,1,.3,0l3.2.9A.37.37,0,0,1,587.5,361.3Z" transform="translate(-154.8 -74.4)" style="fill:#ff6464"/><line x1="423.5" y1="292.9" x2="450.1" y2="277.5" style="fill:none;stroke:#ad644b;stroke-linecap:round;stroke-linejoin:round;stroke-width:2px"/><path d="M590.7,365.5l-7.3,4.2a.37.37,0,0,1-.5-.2l-1.4-2.9a.37.37,0,0,1,.2-.5l7.3-4.2a.37.37,0,0,1,.5.2l1.4,2.9C591,365.1,590.9,365.4,590.7,365.5Z" transform="translate(-154.8 -74.4)" style="fill:#ff6464"/><path d="M649.1,396.6l-7.1,4.1a.19.19,0,0,1-.3,0l-3.2-.9a.39.39,0,0,1-.1-.7l7.1-4.1a.19.19,0,0,1,.3,0l3.2.9A.39.39,0,0,1,649.1,396.6Z" transform="translate(-154.8 -74.4)" style="fill:#ff6464"/><line x1="485" y1="328.1" x2="511.7" y2="312.8" style="fill:none;stroke:#ad644b;stroke-linecap:round;stroke-linejoin:round;stroke-width:2px"/><path d="M652.3,400.7l-7.3,4.2a.37.37,0,0,1-.5-.2l-1.4-2.9a.37.37,0,0,1,.2-.5l7.3-4.2a.37.37,0,0,1,.5.2l1.4,2.9C652.5,400.4,652.5,400.6,652.3,400.7Z" transform="translate(-154.8 -74.4)" style="fill:#ff6464"/><ellipse cx="735.26" cy="417.89" rx="14.9" ry="25.9" transform="translate(-265.24 349.23) rotate(-30)" style="fill:#d6d6d6"/><polygon points="567.6 321.1 560.1 325.6 585.6 370.6 593.7 365.7 567.6 321.1" style="fill:#d6d6d6"/><ellipse cx="727.87" cy="422.32" rx="14.9" ry="25.9" transform="translate(-268.44 346.12) rotate(-30)" style="fill:#fff"/><ellipse cx="727.87" cy="422.32" rx="11.9" ry="20.7" transform="translate(-268.44 346.12) rotate(-30)" style="fill:#343538"/><ellipse cx="727.87" cy="422.32" rx="8.7" ry="15" transform="translate(-268.44 346.12) rotate(-30)" style="fill:#0acee8"/><ellipse cx="727.87" cy="422.32" rx="5" ry="8.6" transform="translate(-268.44 346.12) rotate(-30)" style="fill:#ff6464"/><ellipse cx="727.87" cy="422.32" rx="2" ry="3.4" transform="translate(-268.44 346.12) rotate(-30)" style="fill:#ffee1a"/><path d="M710.9,431.7l-7.1,4.1a.19.19,0,0,1-.3,0l-3.2-.9a.39.39,0,0,1-.1-.7l7.1-4.1a.19.19,0,0,1,.3,0l3.2.9A.39.39,0,0,1,710.9,431.7Z" transform="translate(-154.8 -74.4)" style="fill:#ff6464"/><line x1="546.8" y1="363.3" x2="573.5" y2="347.9" style="fill:none;stroke:#ad644b;stroke-linecap:round;stroke-linejoin:round;stroke-width:2px"/><path d="M714.1,435.8l-7.3,4.2a.37.37,0,0,1-.5-.2l-1.4-2.9a.37.37,0,0,1,.2-.5l7.3-4.2a.37.37,0,0,1,.5.2l1.4,2.9C714.3,435.5,714.3,435.7,714.1,435.8Z" transform="translate(-154.8 -74.4)" style="fill:#ff6464"/><polygon points="288 210.6 250.3 232.4 285.1 224.8 288 210.6" style="fill:#ff9750"/><g id="leftTree"><polygon points="189.5 315.4 66.9 386.4 0 347.9 122.7 276.8 189.5 315.4" style="fill:#ff9750"/><polygon points="66.9 402.3 0 363.7 0 347.8 66.9 386.4 66.9 402.3" style="fill:#ffc7ae"/><polygon points="189.5 331.2 66.9 402.3 66.9 386.4 189.5 315.4 189.5 331.2" style="fill:#e26a1a"/><path d="M246.5,388.1c2.8,8.1,17,5.3,21.9,12.3,1.6,2.3-.5,9.2,1.3,11.3,3.9,4.3,10.8,3.9,16.5,2.6,9-2,18.4-5.7,23.7-13.3,8.6-12.3,1.6-12.6-7.1-17.6-3-1.7-5.7-14.2-22.2-14.4-6.1-.1-11.8,1.6-17.5,3.7C260.2,373.7,241.7,374.6,246.5,388.1Z" transform="translate(-154.8 -74.4)" style="fill:#e26a1a;opacity:0.4000000059604645;isolation:isolate"/><rect x="114.8" y="286.1" width="15.8" height="29.6" style="fill:#ffc7ae"/><ellipse cx="122.7" cy="315.6" rx="7.9" ry="4.6" style="fill:#ffc7ae"/><path d="M324.1,324.5c2.5,19.5-1.9,35.4-17.3,44.3a58.26,58.26,0,0,1-58.5,0c-16.7-9.7-23.5-33.3-11-46.6,7.9-8.4,2.6-28.5,7.4-38.7,6.1-13.1,23.4-15,30-37.6,1.4-4.7,7.4-6.3,10.7-2.8,2.5,2.6,3.7,6.5,4.5,10.8a72.33,72.33,0,0,0,17.7,37C314,297.8,321.1,308.7,324.1,324.5Z" transform="translate(-154.8 -74.4)" style="fill:#17bc7d"/><path d="M254.3,407.7c4.4,2.1,10.4-1.7,6.9-6.6C256.4,394.7,242.6,402.1,254.3,407.7Z" transform="translate(-154.8 -74.4)" style="fill:#e26a1a;opacity:0.4000000059604645;isolation:isolate"/><path d="M281.4,410.6a6.78,6.78,0,0,1,.6,5.2,15.63,15.63,0,0,1,3.9-4.2" transform="translate(-154.8 -74.4)" style="fill:none;stroke:#ed683a;stroke-linecap:round;stroke-linejoin:round;stroke-width:3px"/><path d="M278.6,412.2a19.35,19.35,0,0,1,3.4,3.6" transform="translate(-154.8 -74.4)" style="fill:none;stroke:#ed683a;stroke-linecap:round;stroke-linejoin:round;stroke-width:3px"/><path d="M228.9,437.2a6.78,6.78,0,0,1,.6,5.2,15.63,15.63,0,0,1,3.9-4.2" transform="translate(-154.8 -74.4)" style="fill:none;stroke:#ed683a;stroke-linecap:round;stroke-linejoin:round;stroke-width:3px"/><path d="M226.1,438.8a19.35,19.35,0,0,1,3.4,3.6" transform="translate(-154.8 -74.4)" style="fill:none;stroke:#ed683a;stroke-linecap:round;stroke-linejoin:round;stroke-width:3px"/><path d="M315.4,383c.8,1.1,1.5,2.2,2.3,3.3a8.75,8.75,0,0,1,2.2-3.2" transform="translate(-154.8 -74.4)" style="fill:none;stroke:#ed683a;stroke-linecap:round;stroke-linejoin:round;stroke-width:3px"/><path d="M178.8,427.2c.8,1.1,1.5,2.2,2.3,3.3a8.75,8.75,0,0,1,2.2-3.2" transform="translate(-154.8 -74.4)" style="fill:none;stroke:#ed683a;stroke-linecap:round;stroke-linejoin:round;stroke-width:3px"/><path d="M237.1,368.2a8.14,8.14,0,0,0-8,0h0l-35.6,20.4,18.1,19.2,35.9-21.5A21.16,21.16,0,0,0,237.1,368.2Z" transform="translate(-154.8 -74.4)" style="fill:#ad644b"/><path d="M188.9,386.2" transform="translate(-154.8 -74.4)" style="fill:#ad644b"/><polygon points="92.7 339 56.9 359.7 56.9 332.6 92.7 311.9 92.7 339" style="fill:#ad644b"/><path d="M211.7,434l-22.4-12.9V395.7a8,8,0,0,1,11.9-6.9h0a20.7,20.7,0,0,1,10.4,18.1V434Z" transform="translate(-154.8 -74.4)" style="fill:#914834"/><path d="M247.8,396.8l-35.3,20.7a4.15,4.15,0,0,1-4.3,0L189,406.3a2.85,2.85,0,0,1-1.4-2.5v-4.1l22.9,12.7,38.8-22.2v4.1A2.82,2.82,0,0,1,247.8,396.8Z" transform="translate(-154.8 -74.4)" style="fill:#e2b700"/><path d="M247.5,388.5v1.3l-36.9,21.3a.45.45,0,0,1-.5,0L189.3,399v-1.3l-1.1.7h0a1.22,1.22,0,0,0,0,2.1l21.1,12.3a2.35,2.35,0,0,0,2.3,0l37.1-21.5a1.22,1.22,0,0,0,0-2.1h0Z" transform="translate(-154.8 -74.4)" style="fill:#ffee1a"/><path d="M226.7,369.7l7,1,7.9,10.4-.4,14-1.3-.9v-2.8a22,22,0,0,0-11-19,7.82,7.82,0,0,0-5.3-1l-2.8,1.6.1-.3a2.21,2.21,0,0,1,1-1.3h0l2.3-1.2Z" transform="translate(-154.8 -74.4)" style="fill:#e2b700"/><path d="M225.5,369.3a8.21,8.21,0,0,1,8.3,0,21.84,21.84,0,0,1,11,19v4.8l-3.7,2.1v-4.8a22,22,0,0,0-11-19,8.21,8.21,0,0,0-8.3,0Z" transform="translate(-154.8 -74.4)" style="fill:#ffee1a"/><path d="M204.5,382.8l7,1,7.9,10.4-.4,13.7-1.3-.8v-2.6a22,22,0,0,0-11-19,7.82,7.82,0,0,0-5.3-1l-2.8,1.6.1-.3a2.21,2.21,0,0,1,1-1.3h0l2.3-1.2Z" transform="translate(-154.8 -74.4)" style="fill:#e2b700"/><path d="M203.3,382.3a8.21,8.21,0,0,1,8.3,0,21.84,21.84,0,0,1,11,19v4.4l-3.7,2.1v-4.4a22,22,0,0,0-11-19,8.21,8.21,0,0,0-8.3,0Z" transform="translate(-154.8 -74.4)" style="fill:#ffee1a"/><path d="M234,397.4l-4.8,4.6-1.5-.9V396c0-2.2,1.3-4.8,3-5.7h0c1.7-1,4.9.1,4.9,2.3Z" transform="translate(-154.8 -74.4)" style="fill:#e2b700"/><polyline points="74.9 336.7 73.5 335.9 73.5 333.6 74.9 333.1 74.9 336.7" style="fill:#e2b700"/><path d="M235.6,398.4l-6.4,3.7v-5.2c0-2.2,1.3-4.8,3-5.7l.4-.3c1.7-1,3,.1,3,2.3Z" transform="translate(-154.8 -74.4)" style="fill:#ffee1a"/><polygon points="80.6 333.4 74.9 336.7 74.9 333.1 80.6 329.7 80.6 333.4" style="fill:#ffee1a"/><path d="M233.4,395.9a3.12,3.12,0,0,0,.7-1.8c0-.8-.6-1.2-1.3-.7a2.85,2.85,0,0,0-1.3,2.2c0,.6.3.9.7.9l-.5,2.4c-.1.4.1.7.5.5l1.3-.7c.3-.2.6-.7.5-1Z" transform="translate(-154.8 -74.4)" style="fill:#343538"/><polygon points="67.8 355.1 64.1 357.2 64.1 339.4 67.8 337.2 67.8 355.1" style="fill:#ffee1a"/><polygon points="64.1 357.2 62.6 356.3 62.6 338 64.1 338 64.1 357.2" style="fill:#e2b700"/><polygon points="90 342.3 86.3 344.4 86.3 326.4 90 324.2 90 342.3" style="fill:#ffee1a"/><polygon points="86.3 344.4 84.8 343.5 84.8 325.2 86.3 325.2 86.3 344.4" style="fill:#e2b700"/><path d="M295.4,354.4" transform="translate(-154.8 -74.4)" style="fill:#e2b700"/><path d="M288.7,348.5" transform="translate(-154.8 -74.4)" style="fill:#e2b700"/><polygon points="135.3 274.6 164.4 250.4 159.5 222.2 130.4 246.4 135.3 274.6" style="fill:#ffee1a"/><path d="M323.2,329.7a7.23,7.23,0,0,1-4.1-4.9l-29,24.2a7,7,0,0,0,4.1,4.9c1.9.7,3.2-.3,2.8-2.3Z" transform="translate(-154.8 -74.4)" style="fill:#ffee1a"/><path d="M297,351.6l-.5-3.2,29.1-24.2.5,3.2a2.21,2.21,0,0,1-.6,2.2l-29.1,24.2A2.55,2.55,0,0,0,297,351.6Z" transform="translate(-154.8 -74.4)" style="fill:#e2b700"/></g><g id="scribbles"><path d="M876.2,343.8c10.5,1.6,29.5-6.4,34-13.3" transform="translate(-154.8 -74.4)" style="fill:none;stroke:#fff;stroke-linecap:round;stroke-linejoin:round;stroke-width:3px"/><path d="M894.8,355.4c11.3.9,28.8-7.8,33.3-14.7" transform="translate(-154.8 -74.4)" style="fill:none;stroke:#fff;stroke-linecap:round;stroke-linejoin:round;stroke-width:3px"/><line x1="731" y1="269" x2="750.1" y2="279.9" style="fill:none;stroke:#fff;stroke-linecap:round;stroke-linejoin:round;stroke-width:3px"/><line x1="742.9" y1="265.1" x2="761.1" y2="275.6" style="fill:none;stroke:#fff;stroke-linecap:round;stroke-linejoin:round;stroke-width:3px"/><line x1="752" y1="259.6" x2="769.3" y2="269.6" style="fill:none;stroke:#fff;stroke-linecap:round;stroke-linejoin:round;stroke-width:3px"/><path d="M301.1,412.4a84.09,84.09,0,0,1,47.2,27L376,424.7a86.73,86.73,0,0,0-48.1-27.4Z" transform="translate(-154.8 -74.4)" style="fill:none;stroke:#fff;stroke-linecap:round;stroke-linejoin:round;stroke-width:3px"/><path d="M337.9,400.3l-27.2,14.4" transform="translate(-154.8 -74.4)" style="fill:none;stroke:#fff;stroke-linecap:round;stroke-linejoin:round;stroke-width:3px"/><path d="M352.6,406.2l-27.7,14.7" transform="translate(-154.8 -74.4)" style="fill:none;stroke:#fff;stroke-linecap:round;stroke-linejoin:round;stroke-width:3px"/><path d="M361.7,412,334,426.6" transform="translate(-154.8 -74.4)" style="fill:none;stroke:#fff;stroke-linecap:round;stroke-linejoin:round;stroke-width:3px"/><path d="M369.8,418.5l-26.9,14.3" transform="translate(-154.8 -74.4)" style="fill:none;stroke:#fff;stroke-linecap:round;stroke-linejoin:round;stroke-width:3px"/><line x1="609.8" y1="393.4" x2="573.7" y2="480.1" style="fill:none;stroke:#fff;stroke-linecap:round;stroke-linejoin:round;stroke-width:3px"/><line x1="628.8" y1="403.7" x2="592.6" y2="490.4" style="fill:none;stroke:#fff;stroke-linecap:round;stroke-linejoin:round;stroke-width:3px"/><line x1="577.3" y1="471.5" x2="596.7" y2="480.5" style="fill:none;stroke:#fff;stroke-linecap:round;stroke-linejoin:round;stroke-width:3px"/><line x1="582.9" y1="457.9" x2="602.4" y2="467" style="fill:none;stroke:#fff;stroke-linecap:round;stroke-linejoin:round;stroke-width:3px"/><line x1="588.6" y1="444.9" x2="606.9" y2="453.4" style="fill:none;stroke:#fff;stroke-linecap:round;stroke-linejoin:round;stroke-width:3px"/><line x1="594.2" y1="431.5" x2="612.5" y2="440" style="fill:none;stroke:#fff;stroke-linecap:round;stroke-linejoin:round;stroke-width:3px"/><line x1="599.9" y1="417.2" x2="619" y2="426.1" style="fill:none;stroke:#fff;stroke-linecap:round;stroke-linejoin:round;stroke-width:3px"/><line x1="606" y1="403.5" x2="624.6" y2="412.1" style="fill:none;stroke:#fff;stroke-linecap:round;stroke-linejoin:round;stroke-width:3px"/><path d="M646.2,641.6c2.9.9,6.9,1.9,9.8,2.8-2,1-5.2,2.5-7.5,2.6" transform="translate(-154.8 -74.4)" style="fill:none;stroke:#fff;stroke-linecap:round;stroke-linejoin:round;stroke-width:3px"/><path d="M656.9,649.8c1.8,2.2,3.7,5.4,1.9,7.7-1,1.3-2.7,1.7-3.9,2.8-1.5,1.5-1.6,3.9-1.6,6.1.4,13.1,2.2,26.1,1.9,39.1-.2,6.6-.9,13.1-.4,19.7.3,4.8,1.2,9.7,1.2,14.5-.1,6.3-1.8,12.8.6,18.6" transform="translate(-154.8 -74.4)" style="fill:none;stroke:#fff;stroke-linecap:round;stroke-linejoin:round;stroke-width:3px"/><path d="M779.2,234.4A122.08,122.08,0,0,0,711,273.3l-40-21.2a121.51,121.51,0,0,1,68.2-38.9Z" transform="translate(-154.8 -74.4)" style="fill:none;stroke:#fff;stroke-linecap:round;stroke-linejoin:round;stroke-width:3px"/><path d="M725.9,216.9l39.2,20.8" transform="translate(-154.8 -74.4)" style="fill:none;stroke:#fff;stroke-linecap:round;stroke-linejoin:round;stroke-width:3px"/><path d="M704.7,225.5l40,21.2" transform="translate(-154.8 -74.4)" style="fill:none;stroke:#fff;stroke-linecap:round;stroke-linejoin:round;stroke-width:3px"/><path d="M691.6,233.8l40,21.2" transform="translate(-154.8 -74.4)" style="fill:none;stroke:#fff;stroke-linecap:round;stroke-linejoin:round;stroke-width:3px"/><path d="M679.8,243.3l40,21.2" transform="translate(-154.8 -74.4)" style="fill:none;stroke:#fff;stroke-linecap:round;stroke-linejoin:round;stroke-width:3px"/><polyline points="345.2 499.8 345.2 513.7 333.2 520.6 333.2 534.5 321.2 541.4 321.2 555.3 309.2 562.2 309.2 576.1" style="fill:none;stroke:#fff;stroke-linecap:round;stroke-linejoin:round;stroke-width:3px"/><polyline points="285.8 562.8 285.8 548.9 297.8 542 297.8 528.1 309.8 521.2 309.8 507.3 321.8 500.4 321.8 486.6" style="fill:none;stroke:#fff;stroke-linecap:round;stroke-linejoin:round;stroke-width:3px"/><line x1="321.8" y1="486.6" x2="345.2" y2="499.8" style="fill:none;stroke:#fff;stroke-linecap:round;stroke-linejoin:round;stroke-width:3px"/><line x1="333.2" y1="520.6" x2="309.8" y2="507.3" style="fill:none;stroke:#fff;stroke-linecap:round;stroke-linejoin:round;stroke-width:3px"/><line x1="321.8" y1="500.4" x2="345.2" y2="513.7" style="fill:none;stroke:#fff;stroke-linecap:round;stroke-linejoin:round;stroke-width:3px"/><line x1="309.8" y1="521.2" x2="333.2" y2="534.5" style="fill:none;stroke:#fff;stroke-linecap:round;stroke-linejoin:round;stroke-width:3px"/><line x1="321.2" y1="541.4" x2="297.8" y2="528.1" style="fill:none;stroke:#fff;stroke-linecap:round;stroke-linejoin:round;stroke-width:3px"/><line x1="297.8" y1="542" x2="321.2" y2="555.3" style="fill:none;stroke:#fff;stroke-linecap:round;stroke-linejoin:round;stroke-width:3px"/><line x1="285.8" y1="548.9" x2="309.2" y2="562.2" style="fill:none;stroke:#fff;stroke-linecap:round;stroke-linejoin:round;stroke-width:3px"/><line x1="309.2" y1="576.1" x2="285.8" y2="562.8" style="fill:none;stroke:#fff;stroke-linecap:round;stroke-linejoin:round;stroke-width:3px"/><polygon points="240 206.9 224.8 215.7 209.5 206.9 224.8 198.1 240 206.9" style="fill:none;stroke:#fff;stroke-linecap:round;stroke-linejoin:round;stroke-width:3px"/><line x1="224.8" y1="215.7" x2="224.8" y2="225.7" style="fill:none;stroke:#fff;stroke-linecap:round;stroke-linejoin:round;stroke-width:3px"/><line x1="240" y1="206.9" x2="240" y2="216.9" style="fill:none;stroke:#fff;stroke-linecap:round;stroke-linejoin:round;stroke-width:3px"/><line x1="209.5" y1="206.9" x2="209.5" y2="216.9" style="fill:none;stroke:#fff;stroke-linecap:round;stroke-linejoin:round;stroke-width:3px"/><polygon points="277.3 208.9 262 217.7 246.7 208.9 262 200.1 277.3 208.9" style="fill:none;stroke:#fff;stroke-linecap:round;stroke-linejoin:round;stroke-width:3px"/><line x1="262" y1="217.7" x2="262" y2="225.5" style="fill:none;stroke:#fff;stroke-linecap:round;stroke-linejoin:round;stroke-width:3px"/><line x1="277.3" y1="208.9" x2="277.3" y2="216.5" style="fill:none;stroke:#fff;stroke-linecap:round;stroke-linejoin:round;stroke-width:3px"/><line x1="246.7" y1="208.9" x2="246.7" y2="218.9" style="fill:none;stroke:#fff;stroke-linecap:round;stroke-linejoin:round;stroke-width:3px"/><polygon points="877.7 434.6 839.1 456.9 821.1 446.5 859.7 424.2 877.7 434.6" style="fill:none;stroke:#fff;stroke-linecap:round;stroke-linejoin:round;stroke-width:3px"/><polyline points="877.7 434.6 877.7 441.1 839.1 463.4 821.1 453.1 821.1 446.5" style="fill:none;stroke:#fff;stroke-linecap:round;stroke-linejoin:round;stroke-width:3px"/><line x1="833.8" y1="448.5" x2="833.8" y2="402.5" style="fill:none;stroke:#fff;stroke-linecap:round;stroke-linejoin:round;stroke-width:3px"/><line x1="863" y1="431.2" x2="863" y2="385.2" style="fill:none;stroke:#fff;stroke-linecap:round;stroke-linejoin:round;stroke-width:3px"/><polygon points="415.9 66.9 336 113 336 47.6 415.9 1.5 415.9 66.9" style="fill:none;stroke:#fff;stroke-linecap:round;stroke-linejoin:round;stroke-width:3px"/><line x1="344.9" y1="51.1" x2="405.4" y2="61.5" style="fill:none;stroke:#fff;stroke-linecap:round;stroke-linejoin:round;stroke-width:3px"/><line x1="343.5" y1="99.5" x2="408.5" y2="13.3" style="fill:none;stroke:#fff;stroke-linecap:round;stroke-linejoin:round;stroke-width:3px"/><polygon points="291 659.2 234.8 691.6 234.8 645.5 291 613 291 659.2" style="fill:none;stroke:#fff;stroke-linecap:round;stroke-linejoin:round;stroke-width:3px"/><line x1="241" y1="648" x2="283.7" y2="655.3" style="fill:none;stroke:#fff;stroke-linecap:round;stroke-linejoin:round;stroke-width:3px"/><line x1="240.1" y1="682.1" x2="284.4" y2="623.2" style="fill:none;stroke:#fff;stroke-linecap:round;stroke-linejoin:round;stroke-width:3px"/><path d="M649.5,651.1a45.68,45.68,0,0,0-4.2-10.8c2.9-2.6,9.2-2.7,12-2.2-.4,3.8-1,8.6-1.6,12.3A14.32,14.32,0,0,1,649.5,651.1Z" transform="translate(-154.8 -74.4)" style="fill:none;stroke:#fff;stroke-linecap:round;stroke-linejoin:round;stroke-width:3px"/><polygon points="880.7 345.7 837.2 320.5 837.2 259.7 880.7 284.8 880.7 345.7" style="fill:none;stroke:#fff;stroke-linecap:round;stroke-linejoin:round;stroke-width:3px"/><line x1="844.9" y1="273.1" x2="874.3" y2="335" style="fill:none;stroke:#fff;stroke-linecap:round;stroke-linejoin:round;stroke-width:3px"/><line x1="841.8" y1="317.5" x2="873.4" y2="289.3" style="fill:none;stroke:#fff;stroke-linecap:round;stroke-linejoin:round;stroke-width:3px"/></g></svg>