<svg xmlns="http://www.w3.org/2000/svg" xmlns:xlink="http://www.w3.org/1999/xlink" viewBox="0 0 24.498 24.499">
  <defs>
    <style>
      .cls-1 {
        fill: #80e0a7;
      }

      .cls-2 {
        clip-path: url(#clip-path);
      }
    </style>
    <clipPath id="clip-path">
      <path id="Mask" class="cls-1" d="M11.024,24.5a2.451,2.451,0,0,1-2.45-2.45v-4.9a6.125,6.125,0,1,1,7.349,0v4.9a2.451,2.451,0,0,1-2.45,2.45Zm9.8-11.024a1.225,1.225,0,0,1,0-2.45h2.45a1.225,1.225,0,0,1,0,2.45Zm-19.6,0a1.225,1.225,0,0,1,0-2.45h2.45a1.225,1.225,0,0,1,0,2.45Zm16.312-6.33a1.223,1.223,0,0,1,.03-1.731l1.763-1.7a1.224,1.224,0,1,1,1.7,1.761l-1.763,1.7a1.221,1.221,0,0,1-1.731-.03ZM5.23,7.175l-1.763-1.7a1.226,1.226,0,0,1,1.7-1.764l1.763,1.7a1.226,1.226,0,0,1-1.7,1.763Zm5.794-3.5V1.225a1.225,1.225,0,1,1,2.45,0v2.45a1.225,1.225,0,1,1-2.45,0Z" transform="translate(0 0)"/>
    </clipPath>
  </defs>
  <g id="research" transform="translate(-353 -5613.538)">
    <path id="Mask-2" data-name="Mask" class="cls-1" d="M11.024,24.5a2.451,2.451,0,0,1-2.45-2.45v-4.9a6.125,6.125,0,1,1,7.349,0v4.9a2.451,2.451,0,0,1-2.45,2.45Zm9.8-11.024a1.225,1.225,0,0,1,0-2.45h2.45a1.225,1.225,0,0,1,0,2.45Zm-19.6,0a1.225,1.225,0,0,1,0-2.45h2.45a1.225,1.225,0,0,1,0,2.45Zm16.312-6.33a1.223,1.223,0,0,1,.03-1.731l1.763-1.7a1.224,1.224,0,1,1,1.7,1.761l-1.763,1.7a1.221,1.221,0,0,1-1.731-.03ZM5.23,7.175l-1.763-1.7a1.226,1.226,0,0,1,1.7-1.764l1.763,1.7a1.226,1.226,0,0,1-1.7,1.763Zm5.794-3.5V1.225a1.225,1.225,0,1,1,2.45,0v2.45a1.225,1.225,0,1,1-2.45,0Z" transform="translate(353 5613.538)"/>
    <g id="Group_117" data-name="Group 117" class="cls-2" transform="translate(353 5613.538)">
      <g id="_Color" data-name="🎨 Color" transform="translate(-2.45 -2.45)">
        <rect id="_Color_background" data-name="🎨 Color background" class="cls-1" width="29.398" height="29.399"/>
        <rect id="Base" class="cls-1" width="29.398" height="29.398"/>
      </g>
    </g>
  </g>
</svg>
