<svg xmlns="http://www.w3.org/2000/svg" xmlns:xlink="http://www.w3.org/1999/xlink" viewBox="0 0 15.477 19.325">
  <defs>
    <style>
      .cls-1 {
        fill: #80e0a7;
      }

      .cls-2 {
        clip-path: url(#clip-path);
      }
    </style>
    <clipPath id="clip-path">
      <path id="Mask" class="cls-1" d="M.968,19.325a.967.967,0,1,1,0-1.934H14.51a.967.967,0,1,1,0,1.934ZM.283,15.171A.969.969,0,0,1,0,14.4L.37,10.367A1.909,1.909,0,0,1,.922,9.193l8.7-8.7A1.737,1.737,0,0,1,10.871,0a1.963,1.963,0,0,1,1.38.558L14.9,3.206a1.863,1.863,0,0,1,.067,2.626l-8.7,8.7a1.913,1.913,0,0,1-1.174.551l-4.033.366c-.026,0-.054,0-.087,0A.976.976,0,0,1,.283,15.171ZM9.019,3.832l2.606,2.606L13.51,4.553,10.9,1.947Z" transform="translate(0 0)"/>
    </clipPath>
  </defs>
  <g id="scribbling" transform="translate(-350.999 -5616.33)">
    <path id="Mask-2" data-name="Mask" class="cls-1" d="M.968,19.325a.967.967,0,1,1,0-1.934H14.51a.967.967,0,1,1,0,1.934ZM.283,15.171A.969.969,0,0,1,0,14.4L.37,10.367A1.909,1.909,0,0,1,.922,9.193l8.7-8.7A1.737,1.737,0,0,1,10.871,0a1.963,1.963,0,0,1,1.38.558L14.9,3.206a1.863,1.863,0,0,1,.067,2.626l-8.7,8.7a1.913,1.913,0,0,1-1.174.551l-4.033.366c-.026,0-.054,0-.087,0A.976.976,0,0,1,.283,15.171ZM9.019,3.832l2.606,2.606L13.51,4.553,10.9,1.947Z" transform="translate(350.999 5616.33)"/>
  </g>
</svg>
